<mxfile host="app.diagrams.net" modified="2023-05-21T14:02:03.508Z" agent="Mozilla/5.0 (Macintosh; Intel Mac OS X 10_15_7) AppleWebKit/605.1.15 (KHTML, like Gecko) Version/16.4 Safari/605.1.15" etag="GSv9fcr5V_tPSkvCEABc" version="21.3.2" type="google" pages="2">
  <diagram name="S1" id="oif4JocFaIs13oE4T7J2">
    <mxGraphModel grid="1" page="1" gridSize="10" guides="1" tooltips="1" connect="1" arrows="1" fold="1" pageScale="1" pageWidth="827" pageHeight="1169" math="0" shadow="0">
      <root>
        <mxCell id="0" />
        <mxCell id="1" parent="0" />
        <mxCell id="zRn9AbAPb96ZZckrNFZ4-4" value="&lt;b&gt;X, Z&lt;/b&gt;" style="rounded=0;orthogonalLoop=1;jettySize=auto;html=1;exitX=1;exitY=0;exitDx=0;exitDy=0;entryX=0;entryY=0;entryDx=0;entryDy=0;" edge="1" parent="1" source="zRn9AbAPb96ZZckrNFZ4-1" target="zRn9AbAPb96ZZckrNFZ4-2">
          <mxGeometry relative="1" as="geometry" />
        </mxCell>
        <mxCell id="zRn9AbAPb96ZZckrNFZ4-1" value="&lt;font style=&quot;font-size: 23px;&quot;&gt;T1&lt;/font&gt;" style="ellipse;whiteSpace=wrap;html=1;aspect=fixed;" vertex="1" parent="1">
          <mxGeometry x="179" y="445" width="80" height="80" as="geometry" />
        </mxCell>
        <mxCell id="zRn9AbAPb96ZZckrNFZ4-5" value="&lt;b&gt;Z&lt;/b&gt;" style="rounded=0;orthogonalLoop=1;jettySize=auto;html=1;exitX=0;exitY=1;exitDx=0;exitDy=0;entryX=1;entryY=1;entryDx=0;entryDy=0;" edge="1" parent="1" source="zRn9AbAPb96ZZckrNFZ4-2" target="zRn9AbAPb96ZZckrNFZ4-1">
          <mxGeometry relative="1" as="geometry">
            <mxPoint x="530" y="535" as="sourcePoint" />
          </mxGeometry>
        </mxCell>
        <mxCell id="zRn9AbAPb96ZZckrNFZ4-2" value="&lt;font style=&quot;font-size: 23px;&quot;&gt;T2&lt;/font&gt;" style="ellipse;whiteSpace=wrap;html=1;aspect=fixed;" vertex="1" parent="1">
          <mxGeometry x="569" y="445" width="80" height="80" as="geometry" />
        </mxCell>
        <mxCell id="zRn9AbAPb96ZZckrNFZ4-6" value="&lt;b&gt;X&lt;/b&gt;" style="rounded=0;orthogonalLoop=1;jettySize=auto;html=1;exitX=0;exitY=0.5;exitDx=0;exitDy=0;entryX=0.5;entryY=1;entryDx=0;entryDy=0;" edge="1" parent="1" source="zRn9AbAPb96ZZckrNFZ4-3" target="zRn9AbAPb96ZZckrNFZ4-1">
          <mxGeometry relative="1" as="geometry" />
        </mxCell>
        <mxCell id="zRn9AbAPb96ZZckrNFZ4-7" value="&lt;b&gt;X, Y&lt;/b&gt;" style="rounded=0;orthogonalLoop=1;jettySize=auto;html=1;exitX=1;exitY=0.5;exitDx=0;exitDy=0;entryX=0.5;entryY=1;entryDx=0;entryDy=0;" edge="1" parent="1" source="zRn9AbAPb96ZZckrNFZ4-3" target="zRn9AbAPb96ZZckrNFZ4-2">
          <mxGeometry relative="1" as="geometry" />
        </mxCell>
        <mxCell id="zRn9AbAPb96ZZckrNFZ4-3" value="&lt;font style=&quot;font-size: 23px;&quot;&gt;T3&lt;/font&gt;" style="ellipse;whiteSpace=wrap;html=1;aspect=fixed;" vertex="1" parent="1">
          <mxGeometry x="374" y="645" width="80" height="80" as="geometry" />
        </mxCell>
      </root>
    </mxGraphModel>
  </diagram>
  <diagram name="S2" id="ieHVrGd9rscBgOSlSpSp">
    <mxGraphModel grid="1" page="1" gridSize="10" guides="1" tooltips="1" connect="1" arrows="1" fold="1" pageScale="1" pageWidth="827" pageHeight="1169" math="0" shadow="0">
      <root>
        <mxCell id="Hh9m7D59D0xEYjVsfY79-0" />
        <mxCell id="Hh9m7D59D0xEYjVsfY79-1" parent="Hh9m7D59D0xEYjVsfY79-0" />
        <mxCell id="tDy4zNMQwlM7uWDBOHZi-2" value="&lt;b&gt;X&lt;/b&gt;" style="edgeStyle=orthogonalEdgeStyle;rounded=0;orthogonalLoop=1;jettySize=auto;html=1;exitX=1;exitY=0.5;exitDx=0;exitDy=0;entryX=0;entryY=0.5;entryDx=0;entryDy=0;" edge="1" parent="Hh9m7D59D0xEYjVsfY79-1" source="Hh9m7D59D0xEYjVsfY79-3" target="Hh9m7D59D0xEYjVsfY79-5">
          <mxGeometry relative="1" as="geometry" />
        </mxCell>
        <mxCell id="Hh9m7D59D0xEYjVsfY79-3" value="&lt;font style=&quot;font-size: 23px;&quot;&gt;T1&lt;/font&gt;" style="ellipse;whiteSpace=wrap;html=1;aspect=fixed;" parent="Hh9m7D59D0xEYjVsfY79-1" vertex="1">
          <mxGeometry x="159" y="550" width="80" height="80" as="geometry" />
        </mxCell>
        <mxCell id="tDy4zNMQwlM7uWDBOHZi-3" value="&lt;b&gt;Z&lt;/b&gt;" style="rounded=0;orthogonalLoop=1;jettySize=auto;html=1;exitX=0.5;exitY=0;exitDx=0;exitDy=0;entryX=1;entryY=1;entryDx=0;entryDy=0;" edge="1" parent="Hh9m7D59D0xEYjVsfY79-1" source="Hh9m7D59D0xEYjVsfY79-5" target="tDy4zNMQwlM7uWDBOHZi-1">
          <mxGeometry relative="1" as="geometry" />
        </mxCell>
        <mxCell id="tDy4zNMQwlM7uWDBOHZi-4" value="&lt;b&gt;Z&lt;/b&gt;" style="rounded=0;orthogonalLoop=1;jettySize=auto;html=1;exitX=0.5;exitY=1;exitDx=0;exitDy=0;entryX=1;entryY=0;entryDx=0;entryDy=0;" edge="1" parent="Hh9m7D59D0xEYjVsfY79-1" source="Hh9m7D59D0xEYjVsfY79-5" target="Hh9m7D59D0xEYjVsfY79-8">
          <mxGeometry relative="1" as="geometry" />
        </mxCell>
        <mxCell id="Hh9m7D59D0xEYjVsfY79-5" value="&lt;font style=&quot;font-size: 23px;&quot;&gt;T2&lt;/font&gt;" style="ellipse;whiteSpace=wrap;html=1;aspect=fixed;" parent="Hh9m7D59D0xEYjVsfY79-1" vertex="1">
          <mxGeometry x="589" y="550" width="80" height="80" as="geometry" />
        </mxCell>
        <mxCell id="tDy4zNMQwlM7uWDBOHZi-6" value="&lt;b&gt;Z, Y&lt;/b&gt;" style="edgeStyle=orthogonalEdgeStyle;rounded=0;orthogonalLoop=1;jettySize=auto;html=1;exitX=0;exitY=0.5;exitDx=0;exitDy=0;entryX=0;entryY=0.5;entryDx=0;entryDy=0;" edge="1" parent="Hh9m7D59D0xEYjVsfY79-1" source="Hh9m7D59D0xEYjVsfY79-8" target="tDy4zNMQwlM7uWDBOHZi-1">
          <mxGeometry relative="1" as="geometry">
            <Array as="points">
              <mxPoint x="80" y="790" />
              <mxPoint x="80" y="380" />
            </Array>
          </mxGeometry>
        </mxCell>
        <mxCell id="Hh9m7D59D0xEYjVsfY79-8" value="&lt;font style=&quot;font-size: 23px;&quot;&gt;T4&lt;/font&gt;" style="ellipse;whiteSpace=wrap;html=1;aspect=fixed;" parent="Hh9m7D59D0xEYjVsfY79-1" vertex="1">
          <mxGeometry x="373" y="750" width="80" height="80" as="geometry" />
        </mxCell>
        <mxCell id="tDy4zNMQwlM7uWDBOHZi-5" value="&lt;b&gt;X&lt;/b&gt;" style="rounded=0;orthogonalLoop=1;jettySize=auto;html=1;exitX=0.5;exitY=1;exitDx=0;exitDy=0;entryX=0;entryY=0;entryDx=0;entryDy=0;" edge="1" parent="Hh9m7D59D0xEYjVsfY79-1">
          <mxGeometry relative="1" as="geometry">
            <mxPoint x="414" y="420" as="sourcePoint" />
            <mxPoint x="601.7157287525381" y="561.7157287525381" as="targetPoint" />
          </mxGeometry>
        </mxCell>
        <mxCell id="tDy4zNMQwlM7uWDBOHZi-1" value="&lt;font style=&quot;font-size: 23px;&quot;&gt;T3&lt;/font&gt;" style="ellipse;whiteSpace=wrap;html=1;aspect=fixed;" vertex="1" parent="Hh9m7D59D0xEYjVsfY79-1">
          <mxGeometry x="373" y="340" width="80" height="80" as="geometry" />
        </mxCell>
        <mxCell id="tDy4zNMQwlM7uWDBOHZi-7" value="&lt;b&gt;Z&lt;/b&gt;" style="edgeStyle=orthogonalEdgeStyle;rounded=0;orthogonalLoop=1;jettySize=auto;html=1;exitX=1;exitY=0.5;exitDx=0;exitDy=0;entryX=1;entryY=0.5;entryDx=0;entryDy=0;startArrow=classic;startFill=1;endArrow=none;endFill=0;" edge="1" parent="Hh9m7D59D0xEYjVsfY79-1" source="Hh9m7D59D0xEYjVsfY79-8" target="tDy4zNMQwlM7uWDBOHZi-1">
          <mxGeometry relative="1" as="geometry">
            <mxPoint x="383" y="800" as="sourcePoint" />
            <mxPoint x="383" y="390" as="targetPoint" />
            <Array as="points">
              <mxPoint x="790" y="790" />
              <mxPoint x="790" y="380" />
            </Array>
          </mxGeometry>
        </mxCell>
      </root>
    </mxGraphModel>
  </diagram>
</mxfile>
